<svg width="159" height="670" viewBox="0 0 159 670" fill="none" xmlns="http://www.w3.org/2000/svg">
<g clip-path="url(#clip0_53_73)">
<rect width="159" height="670" fill="white"/>
<rect x="10" y="10" width="10" height="100" rx="5" fill="#EEF2F8"/>
<rect x="10" y="120" width="10" height="100" rx="5" fill="#EEF2F8"/>
<rect x="10" y="230" width="10" height="100" rx="5" fill="#EEF2F8"/>
<rect x="10" y="340" width="10" height="100" rx="5" fill="#EEF2F8"/>
<rect x="10" y="450" width="10" height="100" rx="5" fill="#EEF2F8"/>
<rect x="10" y="560" width="10" height="100" rx="5" fill="#EEF2F8"/>
<rect x="30" y="-50" width="10" height="100" rx="5" fill="#EEF2F8"/>
<rect x="30" y="60" width="10" height="100" rx="5" fill="#EEF2F8"/>
<rect x="30" y="170" width="10" height="100" rx="5" fill="#EEF2F8"/>
<rect x="30" y="280" width="10" height="100" rx="5" fill="#EEF2F8"/>
<rect x="30" y="390" width="10" height="100" rx="5" fill="#EEF2F8"/>
<rect x="30" y="500" width="10" height="100" rx="5" fill="#EEF2F8"/>
<rect x="30" y="610" width="10" height="100" rx="5" fill="#EEF2F8"/>
<rect x="50" y="10" width="10" height="100" rx="5" fill="#EEF2F8"/>
<rect x="50" y="120" width="10" height="100" rx="5" fill="#EEF2F8"/>
<rect x="50" y="230" width="10" height="100" rx="5" fill="#EEF2F8"/>
<rect x="50" y="340" width="10" height="100" rx="5" fill="#EEF2F8"/>
<rect x="50" y="450" width="10" height="100" rx="5" fill="#EEF2F8"/>
<rect x="50" y="560" width="10" height="100" rx="5" fill="#EEF2F8"/>
<rect x="70" y="-50" width="10" height="100" rx="5" fill="#EEF2F8"/>
<rect x="70" y="60" width="10" height="100" rx="5" fill="#EEF2F8"/>
<rect x="70" y="170" width="10" height="100" rx="5" fill="#EEF2F8"/>
<rect x="70" y="280" width="10" height="100" rx="5" fill="#EEF2F8"/>
<rect x="70" y="390" width="10" height="100" rx="5" fill="#EEF2F8"/>
<rect x="70" y="500" width="10" height="100" rx="5" fill="#EEF2F8"/>
<rect x="70" y="610" width="10" height="100" rx="5" fill="#EEF2F8"/>
<rect x="129" y="10" width="10" height="100" rx="5" fill="#EEF2F8"/>
<rect x="129" y="120" width="10" height="100" rx="5" fill="#EEF2F8"/>
<rect x="129" y="230" width="10" height="100" rx="5" fill="#EEF2F8"/>
<rect x="129" y="340" width="10" height="100" rx="5" fill="#EEF2F8"/>
<rect x="129" y="450" width="10" height="100" rx="5" fill="#EEF2F8"/>
<rect x="129" y="560" width="10" height="100" rx="5" fill="#EEF2F8"/>
<rect x="149" y="-50" width="10" height="100" rx="5" fill="#EEF2F8"/>
<rect x="149" y="60" width="10" height="100" rx="5" fill="#EEF2F8"/>
<rect x="149" y="170" width="10" height="100" rx="5" fill="#EEF2F8"/>
<rect x="149" y="280" width="10" height="100" rx="5" fill="#EEF2F8"/>
<rect x="149" y="390" width="10" height="100" rx="5" fill="#EEF2F8"/>
<rect x="149" y="500" width="10" height="100" rx="5" fill="#EEF2F8"/>
<rect x="149" y="610" width="10" height="100" rx="5" fill="#EEF2F8"/>
<rect x="90" y="10" width="10" height="100" rx="5" fill="#EEF2F8"/>
<rect x="90" y="120" width="10" height="100" rx="5" fill="#EEF2F8"/>
<rect x="90" y="230" width="10" height="100" rx="5" fill="#EEF2F8"/>
<rect x="90" y="340" width="10" height="100" rx="5" fill="#EEF2F8"/>
<rect x="90" y="450" width="10" height="100" rx="5" fill="#EEF2F8"/>
<rect x="90" y="560" width="10" height="100" rx="5" fill="#EEF2F8"/>
<rect x="110" y="-50" width="10" height="100" rx="5" fill="#EEF2F8"/>
<rect x="110" y="60" width="10" height="100" rx="5" fill="#EEF2F8"/>
<rect x="110" y="170" width="10" height="100" rx="5" fill="#EEF2F8"/>
<rect x="110" y="280" width="10" height="100" rx="5" fill="#EEF2F8"/>
<rect x="110" y="390" width="10" height="100" rx="5" fill="#EEF2F8"/>
<rect x="110" y="500" width="10" height="100" rx="5" fill="#EEF2F8"/>
<rect x="110" y="610" width="10" height="100" rx="5" fill="#EEF2F8"/>
</g>
<defs>
<clipPath id="clip0_53_73">
<rect width="159" height="670" fill="white"/>
</clipPath>
</defs>
</svg>
