<?xml version="1.0" encoding="utf-8"?>
<!-- Generator: Adobe Illustrator 19.0.0, SVG Export Plug-In . SVG Version: 6.00 Build 0)  -->
<svg version="1.1" id="Layer_1" xmlns="http://www.w3.org/2000/svg" xmlns:xlink="http://www.w3.org/1999/xlink" x="0px" y="0px"
	 viewBox="0 0 545 313" style="enable-background:new 0 0 545 313;" xml:space="preserve">
<style type="text/css">
	.sst0{fill:#9EA2A2;}
	.sst1{fill:#AA2328;}
	.sst2{fill:#8F9393;}
	.sst3{fill:#919595;}
	.sst4{fill:#797D7D;}
	.sst5{fill:#626666;}
</style>
<path class="sst0" d="M535.9425659,24.9373016c-0.2988892,5.3099709-0.5350952,11.5748138-0.9163818,16.8788643
	c-0.3104248,4.3166962-3.0122681,6.2184296-7.0388184,7.185215c-33.1147461,7.9509201-66.2912903,15.6724472-99.2468262,24.2414322
	c-10.0407104,2.6107483-19.6836243,7.1609802-29.099884,11.6756744
	c-17.919342,8.5915451-27.0891418,23.9636536-29.3901672,43.0174637
	c-2.2280273,18.4486923-3.1176453,37.0735397-4.1139832,55.6468277c-0.2692871,5.0196228,1.2069702,10.1329041,1.881958,15.2033234
	c1.2309265,12.3145752,7.7590332,21.7721863,16.8905029,29.3576508
	c17.6819153,14.6882324,39.2258911,26.8300018,59.750946,36.9584503l-60.6049805-0.0492859
	c-8.0812073-9.6066589-16.1473389-19.2249451-24.246582-28.816391
	c-10.6398621-12.6001587-22.4353943-23.942337-36.1911011-33.1457367
	c-20.3892517-12.5998077-31.0473938-6.5235291-52.8486938,5.8091125l91.7135315-183.9626007H535.9425659z"/>
<path class="sst1" d="M165.3103943,261.3234558c19.2967834-8.3561859,24.7740021-11.5682678,35.6142731-18.5612488
	c7.3846436-4.7637787,14.3398743-10.2940674,21.019928-16.026062c10.408783-8.9315643,15.5292664-20.9810791,16.2784882-34.2857056
	c0.6117249-10.8626099,0.1885986-22.0091095-1.6040802-32.7238159
	c-2.1901398-13.0900726-10.8267212-21.7878418-23.4300842-26.2214813c-2.163208-0.7609863-3.6538696-1.3414764-3.6429749-4.2616119
	c0.1250153-33.4977646,0.1143799-102.0642853,0.1143799-102.0642853h148.0639496
	c-1.9035034,3.8980675-3.600769,7.4564552-5.3677368,10.9798698
	c-28.3968811,56.6248207-56.7840881,113.2545319-85.2698669,169.8345947
	c-0.8110046,1.9791565-4.0193787,4.5757904-5.2429504,6.2333832l-42.4395599,47.266922
	C219.4041595,261.4940186,181.7111053,261.3234558,165.3103943,261.3234558z"/>
<path class="sst1" d="M7.5407019,26.6317005c54.8281822,6.9783154,109.8048096,8.0960407,166.2098236,4.5562267
	c0,0-0.0262756,93.878273-0.0190582,93.9089737c0.2117615,3.1268234,1.7473602,4.3480911,1.7575836,4.3915787
	c-3.7061462-0.2704468-9.4319-0.5123749-15.8008575-1.0832062c-5.4162598-0.4854431-10.9591217-1.0709229-16.1223755-1.9696045
	c-33.3566132-5.8057251-61.3230515-22.6837158-86.0559082-44.7941895
	C41.4281158,67.264801,26.7903957,51.2963638,11.7852821,35.6992798c-2.0861635-2.1684647-3.4863148-5.0075798-5.2027845-7.537426
	C6.1046734,27.4576035,6.6964641,26.5242481,7.5407019,26.6317005z"/>
<path class="sst2" d="M270.7685547,208.8999023c21.8013-12.3326416,32.4594421-18.4089203,52.8486938-5.8091125
	c13.7557068,9.2033997,25.551239,20.545578,36.1911011,33.1457367c8.0992432,9.5914459,16.1659851,19.2103119,24.246582,28.816391
	c0,0-0.1245728,27.4820557-0.186554,41.2233887c-6.563446-2.0975952-12.2988586-5.6360474-15.5668335-11.7394409
	c-3.9370422-7.3529663-10.3481445-10.8417664-17.8475647-12.3265686
	c-23.4535828-4.6437073-47.1560059-6.4050903-70.9397278-3.3509521c-10.3093872,1.323822-20.5029602,3.8283386-30.6058807,6.3666992
	c-5.2499542,1.3190308-9.2719421,4.6612549-11.8114929,9.940979c-2.5818329,5.3675537-8.1449432,9.1471252-15.7898407,11.6885376
	L270.7685547,208.8999023z"/>
<path class="sst3" d="M535.9425659,24.9373016H362.4820862l10.0148315-19.7487049c0,0,86.7257996,0.04602,127.7938538,0.0982323
	c10.9740906,0.0139523,21.9481812-0.0003734,32.9222412,0.0030179c6.9168091,0.0021372,6.9171143,0.0060816,6.9190674,7.1612768
	l0.0447388,7.9773369C540.2184448,23.7617245,539.4014282,24.9468994,535.9425659,24.9373016z"/>
<path class="sst1" d="M206.2529297,20.2279892c0,35.7697983,0,73.9582748,0,111.0254745
	c-8.1598053-1.228363-16.1386871-2.0622406-26.8239594-2.1163025c-1.0840607-0.0054932-2.1120605-2.0278015-2.3941193-3.4033279
	c-0.797226-3.8881073-0.7907715-8.0506897-0.8087158-12.0041275c-0.1240692-27.3194733-0.0761261-54.6397743-0.0586395-81.9598007
	c0.0051117-7.9746647,0.4207001-8.1031017,8.4916992-8.4290562C191.795639,23.052639,201.3298187,22.9252338,206.2529297,20.2279892
	z"/>
<polygon class="sst1" points="367.904541,7.3022742 358.7984619,24.1113701 210.0494385,23.9980984 210.0494385,7.3022742 "/>
<path class="sst4" d="M383.8683777,306.2763062c0.0619812-13.741333,0.1239929-27.482666,0.186554-41.2233887
	c17.8276062-0.0099182,60.6049805,0.0492859,60.6049805,0.0492859l0.0395508,41.7533569l-55.4906311-0.0255127
	C387.4281921,306.8249512,385.6484985,306.4693909,383.8683777,306.2763062z"/>
<path class="sst1" d="M160.8973389,265.1022034c19.1464539,0,37.779129,0,56.8363953,0c0,12.5957947,0,28.8862,0,41.7533569
	c-18.6889801,0-37.5821686,0-56.8363953,0C160.8973389,294.3688049,160.8973389,278.1039429,160.8973389,265.1022034z"/>
<path class="sst5" d="M444.6599121,265.1022034c-16.8545837-8.072876-41.6785583-21.679306-59.750946-36.9584503
	c-9.1314697-7.5854645-15.6595764-17.0430756-16.8905029-29.3576508
	c6.1774597,12.6750336,16.0364685,14.3248596,26.3052673,17.9544525l22.1190491,6.1178741L444.6599121,265.1022034z"/>
<path class="sst1" d="M231.4403076,206.3453217c-2.128891,4.8604126-4.5247498,8.8396149-7.7361298,12.3377228
	c-11.0196381,12.0035706-24.8621979,20.3112488-38.8000793,28.3959045
	c-6.2249146,3.6107788-14.9636993,8.3739319-21.2824707,11.8229065c-0.280838-0.3457642,16.194519-24.3031921,23.6934967-35.1066895
	c0.7282104-1.0491028,18.2767487-6.1546173,25.1015472-8.7118378
	C222.0328217,212.1734161,226.0543365,211.4746094,231.4403076,206.3453217z"/>
<path class="sst1" d="M221.3117828,299.914093c0-9.9231262-0.0047455-34.4995422-0.0047455-34.4995422
	c11.5523376-13.5250092,40.9524841-46.9077759,40.9524841-46.9077759L221.3117828,299.914093z"/>
</svg>
